HIERARCHY
ROOT Hips
{
	OFFSET 0.000000 0.000000 0.000000
	CHANNELS 6 Xposition Yposition Zposition Xrotation Yrotation Zrotation
	JOINT LeftUpLeg_virtual
	{
		OFFSET 0.000000 0.000000 0.000000
		CHANNELS 3 Xrotation Yrotation Zrotation
		JOINT LeftUpLeg
		{
			OFFSET 13.026900 -6.336304 -1.092800
			CHANNELS 3 Xrotation Yrotation Zrotation
			JOINT LeftLeg
			{
				OFFSET 0.524474 -46.096886 9.782700
				CHANNELS 3 Xrotation Yrotation Zrotation
				JOINT LeftFoot
				{
					OFFSET -0.524474 -53.427422 -12.948200
					CHANNELS 3 Xrotation Yrotation Zrotation
					JOINT LeftToeBase
					{
						OFFSET 0.192200 -14.009700 16.364100
						CHANNELS 3 Xrotation Yrotation Zrotation
						JOINT LeftToe_End
						{
							OFFSET -1.784700 -0.561700 9.474800
							CHANNELS 3 Xrotation Yrotation Zrotation
							End Site
							{
								OFFSET 0 0 0
							}
						}
					}
				}
			}
		}
	}
	JOINT RightUpLeg_virtual
	{
		OFFSET 0.000000 0.000000 0.000000
		CHANNELS 3 Xrotation Yrotation Zrotation
		JOINT RightUpLeg
		{
			OFFSET -12.883000 -6.336304 -1.092800
			CHANNELS 3 Xrotation Yrotation Zrotation
			JOINT RightLeg
			{
				OFFSET -0.524587 -46.096825 9.782800
				CHANNELS 3 Xrotation Yrotation Zrotation
				JOINT RightFoot
				{
					OFFSET 0.524587 -53.427383 -12.948300
					CHANNELS 3 Xrotation Yrotation Zrotation
					JOINT RightToeBase
					{
						OFFSET -0.192200 -14.009700 16.364100
						CHANNELS 3 Xrotation Yrotation Zrotation
						JOINT RightToe_End
						{
							OFFSET 1.784700 -0.561700 9.474800
							CHANNELS 3 Xrotation Yrotation Zrotation
							End Site
							{
								OFFSET 0 0 0
							}
						}
					}
				}
			}
		}
	}
	JOINT Spine_virtual
	{
		OFFSET 0.000000 0.000000 0.000000
		CHANNELS 3 Xrotation Yrotation Zrotation
		JOINT Spine
		{
			OFFSET 0.072000 7.257294 -0.789700
			CHANNELS 3 Xrotation Yrotation Zrotation
			JOINT Spine1
			{
				OFFSET 0.000000 12.508769 -0.658067
				CHANNELS 3 Xrotation Yrotation Zrotation
				JOINT Spine1_split
				{
					OFFSET 0.000000 12.508769 -0.658067
					CHANNELS 3 Xrotation Yrotation Zrotation
					JOINT Spine2
					{
						OFFSET 0.000000 12.508769 -0.658067
						CHANNELS 3 Xrotation Yrotation Zrotation
						JOINT Neck_virtual
						{
							OFFSET 0.000000 0.000000 0.000000
							CHANNELS 3 Xrotation Yrotation Zrotation
							JOINT Neck
							{
								OFFSET 0.000000 14.033295 7.520400
								CHANNELS 3 Xrotation Yrotation Zrotation
								JOINT Head
								{
									OFFSET 0.000000 8.198502 5.703100
									CHANNELS 3 Xrotation Yrotation Zrotation
									JOINT HeadTop_End
									{
										OFFSET 0.000000 17.760803 13.332701
										CHANNELS 3 Xrotation Yrotation Zrotation
										End Site
										{
											OFFSET 0 0 0
										}
									}
								}
							}
						}
						JOINT LeftShoulder_virtual
						{
							OFFSET 0.000000 0.000000 0.000000
							CHANNELS 3 Xrotation Yrotation Zrotation
							JOINT LeftShoulder
							{
								OFFSET 6.292450 5.785301 -0.669000
								CHANNELS 3 Xrotation Yrotation Zrotation
								JOINT LeftShoulder_split
								{
									OFFSET 6.292450 5.785301 -0.669000
									CHANNELS 3 Xrotation Yrotation Zrotation
									JOINT LeftArm
									{
										OFFSET 13.907140 -6.093903 1.965100
										CHANNELS 3 Xrotation Yrotation Zrotation
										JOINT LeftForeArm
										{
											OFFSET 34.140198 0.000000 0.000000
											CHANNELS 3 Xrotation Yrotation Zrotation
											JOINT LeftHand
											{
												OFFSET 40.960209 0.000000 0.000000
												CHANNELS 3 Xrotation Yrotation Zrotation
												End Site
												{
													OFFSET 0 0 0
												}
											}
										}
									}
								}
							}
						}
						JOINT RightShoulder_virtual
						{
							OFFSET 0.000000 0.000000 0.000000
							CHANNELS 3 Xrotation Yrotation Zrotation
							JOINT RightShoulder
							{
								OFFSET -6.292450 5.785301 -0.669000
								CHANNELS 3 Xrotation Yrotation Zrotation
								JOINT RightShoulder_split
								{
									OFFSET -6.292450 5.785301 -0.669000
									CHANNELS 3 Xrotation Yrotation Zrotation
									JOINT RightArm
									{
										OFFSET -13.907140 -6.093903 1.965100
										CHANNELS 3 Xrotation Yrotation Zrotation
										JOINT RightForeArm
										{
											OFFSET -34.140198 0.000000 0.000000
											CHANNELS 3 Xrotation Yrotation Zrotation
											JOINT RightHand
											{
												OFFSET -40.960209 0.000000 0.000000
												CHANNELS 3 Xrotation Yrotation Zrotation
												End Site
												{
													OFFSET 0 0 0
												}
											}
										}
									}
								}
							}
						}
					}
				}
			}
		}
	}
}
MOTION
Frames: 4
Frame Time: 0.03333333
1.588440 90.563187 2.912201 0.000000 0.000000 0.000000 26.655641 -57.230660 26.364301 -62.669253 22.418129 30.624021 47.902207 -17.408108 -0.001105 -2.047269 3.620312 -8.518333 -3.560006 -6.250006 1.096043 0.000000 0.000000 0.000000 22.017916 -53.271261 23.580028 -41.241785 5.145981 -30.953352 54.760236 1.883596 -5.198867 -27.379775 4.630538 24.279994 -3.026821 2.872788 0.305179 0.000000 0.000000 0.000000 12.236347 -42.074764 16.334770 3.993004 10.763374 0.444761 6.121474 8.983709 -4.341587 1.984737 -3.214197 2.310530 0.000000 0.000000 0.000000 -9.867408 8.690777 -2.848295 -21.052385 -9.713715 2.968732 3.909442 6.014742 -7.272068 0.000000 0.000000 0.000000 -7.789720 8.006437 -0.769331 2.001462 -24.962963 3.606736 -1.739161 2.123378 -3.988125 4.187390 20.180564 -60.084915 -34.833852 -59.734758 -34.100703 0.000000 0.000000 0.000000 -9.507052 8.465955 -1.919374 -0.849571 6.699857 2.913820 8.127113 4.171535 10.731593 14.739376 -10.219922 43.562605 -39.903051 54.350855 37.693803 0.000000 0.000000 0.000000 
0.414554 90.341766 2.533241 0.000000 0.000000 0.000000 28.847710 -57.262114 27.859445 -62.761994 22.366802 30.305406 47.728563 -18.355010 0.688374 -2.362791 2.871496 -9.059962 -3.603279 -6.365708 1.526456 0.000000 0.000000 0.000000 24.182853 -52.643864 24.880337 -42.108659 5.667577 -30.120134 56.490616 2.407221 -5.761179 -26.876207 3.946297 26.175342 -4.254855 2.770691 0.328659 0.000000 0.000000 0.000000 14.661851 -42.796760 18.462425 4.396457 9.221752 0.793699 6.816863 7.510969 -3.994809 4.114684 -5.433772 3.768025 0.000000 0.000000 0.000000 -9.093134 7.550856 -2.452104 -20.839011 -8.405098 3.769684 3.274052 6.276505 -5.411983 0.000000 0.000000 0.000000 -7.427575 6.676603 -0.794581 1.786712 -24.363420 2.999098 -0.650987 -2.674683 -2.802049 8.362089 23.380730 -58.393678 -29.286615 -54.850032 -28.534722 0.000000 0.000000 0.000000 -9.605977 7.223890 -1.645301 -0.624478 6.889097 4.207286 6.342344 2.266959 10.228732 13.308374 -13.192986 44.739365 -47.929521 59.456626 45.177453 0.000000 0.000000 0.000000 
-1.922342 90.215187 2.456745 0.000000 0.000000 0.000000 31.856125 -56.249845 30.399031 -62.974945 21.931017 29.513883 46.946940 -18.954371 1.226306 -2.971337 2.810131 -9.889138 -4.015871 -6.468702 1.950196 0.000000 0.000000 0.000000 27.646907 -51.481158 27.632705 -43.124356 6.435840 -29.223644 57.806766 2.367453 -6.442622 -27.838113 2.136789 26.885160 -3.112886 2.739465 0.651554 0.000000 0.000000 0.000000 19.251670 -42.900661 22.261748 5.279856 6.334717 1.377214 8.055292 4.132838 -3.639230 4.038109 -4.821597 4.229613 0.000000 0.000000 0.000000 -7.798467 4.503805 -2.281498 -19.754553 -6.999271 5.511630 1.050493 6.320291 -1.950690 0.000000 0.000000 0.000000 -6.262714 3.536288 -1.248110 1.989296 -22.798219 3.017788 1.083285 -8.074896 -0.565021 10.936778 27.635837 -55.812030 -21.288769 -48.456108 -20.777116 0.000000 0.000000 0.000000 -8.802082 3.978952 -1.909659 -0.660054 6.445667 6.287447 6.466523 2.137796 10.478579 9.162452 -15.663256 43.642908 -71.218649 65.754655 68.508047 0.000000 0.000000 0.000000 
-4.874391 90.235161 2.680080 0.000000 0.000000 0.000000 35.103324 -54.226450 33.405028 -62.999097 21.326029 28.283272 45.620862 -18.968824 1.488423 -3.595599 3.441832 -10.560833 -4.811092 -6.532119 2.204244 0.000000 0.000000 0.000000 31.377954 -49.721769 31.054575 -44.368086 7.250780 -28.489206 58.493644 1.958116 -7.219162 -29.665888 -0.386948 27.005255 -0.333195 2.833268 1.113369 0.000000 0.000000 0.000000 25.194418 -42.002590 26.821132 6.775645 2.646713 1.974642 9.861353 -0.319006 -3.268814 2.030586 -2.772170 3.782286 0.000000 0.000000 0.000000 -5.969169 0.241517 -2.359521 -18.069136 -5.429825 7.180390 -2.393196 5.556967 2.354233 0.000000 0.000000 0.000000 -4.173041 -0.740951 -1.907818 2.650033 -20.952830 3.661529 2.254607 -11.970418 1.124211 9.856087 31.922412 -51.223898 -13.641825 -41.067189 -13.429909 0.000000 0.000000 0.000000 -6.903304 -0.431335 -2.426332 -0.781208 5.887830 9.177404 7.866215 3.109548 10.780424 3.675857 -16.517025 39.976653 -98.094098 66.370437 95.963072 0.000000 0.000000 0.000000 
